# xmcd
#
# Track frame offsets: 
#        150
#        5420
#        29337
#        50417
#        65695
#        87790
#        110495
#
# Disc length: 1795 seconds
#
# Revision: 0
# Processed by: cddbd v1.5.1PL2 Copyright (c) Steve Scherf et al.
# Submitted via: ExactAudioCopy v0.95b3
#
DISCID=53070107
DTITLE=Kelly Price - One Family (Advance Radio Sampler)
DYEAR=2001
DGENRE=Christmas/Holiday
TTITLE0=Intro
TTITLE1=Silent Night
TTITLE2=Mary's Song
TTITLE3=In Love At Christmas
TTITLE4=If I Lose Christmas
TTITLE5=One Family
TTITLE6=Ave Maria
EXTD=
EXTT0=
EXTT1=
EXTT2=
EXTT3=
EXTT4=
EXTT5=
EXTT6=
PLAYORDER=
